# xmcd CD database file
#
# Track frame offsets:
#	150
#	23073
#	48566
#	74351
#	93255
#	117009
#	132026
#	149869
#	173222
#	203815
#	233319
#	260299
#	291492
#
# Disc length: 4457 seconds
#
# Revision: 0
# Processed by: cddbd v1.5.2PL0 Copyright (c) Steve Scherf et al.
# Submitted via: CDex 1.70beta2
#
DISCID=ba11670d
DTITLE=Dave Pike - It's Time for Dave Pike
DYEAR=1961
DGENRE=Jazz
TTITLE0=Cheryl
TTITLE1=On Green Dolphin Street
TTITLE2=It's Time
TTITLE3=Hot House
TTITLE4=Forward
TTITLE5=Solar
TTITLE6=Little Girl Blue
TTITLE7=Tendin' to Business
TTITLE8=Why Not
TTITLE9=In a Sentimental Mood
TTITLE10=Vierd Blues
TTITLE11=Besame Mucho
TTITLE12=Wild Is the Wind
EXTD=YEAR: 1961
EXTT0=
EXTT1=
EXTT2=
EXTT3=
EXTT4=
EXTT5=
EXTT6=
EXTT7=
EXTT8=
EXTT9=
EXTT10=
EXTT11=
EXTT12=
PLAYORDER=
